<?xml version="1.0" encoding="UTF-8"?>
<svg version="1.1" xmlns="http://www.w3.org/2000/svg" width="532" height="469">
<path d="M0 0 C0 10.89 0 21.78 0 33 C-2.454375 33.928125 -4.90875 34.85625 -7.4375 35.8125 C-8.19087646 36.09843018 -8.94425293 36.38436035 -9.72045898 36.67895508 C-14.77361676 38.5814349 -19.86782394 40.3235234 -25 42 C-44.43890482 48.36221288 -63.86579678 54.78231141 -82.453125 63.37109375 C-85.27898459 64.66887288 -88.09997659 65.88158012 -91 67 C-91 67.66 -91 68.32 -91 69 C-91.66 69 -92.32 69 -93 69 C-92.70089264 73.28720546 -91.93292641 75.69751156 -88.69921875 78.59765625 C-88.13847656 79.06042969 -87.57773437 79.52320312 -87 80 C-86.28457031 80.59683594 -85.56914062 81.19367188 -84.83203125 81.80859375 C-80.48883455 85.35081936 -76.0458167 88.72263357 -71.5 92 C-63.59316402 97.70619212 -56.10404543 103.86392935 -48.6875 110.1875 C-48.10057373 110.68668945 -47.51364746 111.18587891 -46.90893555 111.70019531 C-43.45347089 114.66667446 -40.21111658 117.76666116 -37 121 C-36.071875 121.721875 -35.14375 122.44375 -34.1875 123.1875 C-33.465625 123.785625 -32.74375 124.38375 -32 125 C-32 125.66 -32 126.32 -32 127 C-31.360625 127.268125 -30.72125 127.53625 -30.0625 127.8125 C-28 129 -28 129 -27 132 C-25.67353844 132.6802367 -24.33906335 133.34491865 -23 134 C-21.078125 135.875 -21.078125 135.875 -19.25 138 C-18.63640625 138.70125 -18.0228125 139.4025 -17.390625 140.125 C-16 142 -16 142 -16 144 C-15.34 144 -14.68 144 -14 144 C-12.20748621 146.06712448 -10.5316472 148.14012791 -8.875 150.3125 C-8.38217529 150.9511499 -7.88935059 151.5897998 -7.3815918 152.24780273 C-5.91277975 154.15904817 -4.45474856 156.07803665 -3 158 C-2.26652344 158.96421875 -1.53304688 159.9284375 -0.77734375 160.921875 C7.31419571 171.79638927 13.94421846 183.5386412 20.61230469 195.31396484 C21.09344727 196.16297363 21.57458984 197.01198242 22.0703125 197.88671875 C22.54863525 198.73234375 23.02695801 199.57796875 23.51977539 200.44921875 C25.02230129 203.03843045 26.60403065 205.56761998 28.19140625 208.10546875 C30.83105777 212.4852809 32.50283066 216.69880516 33.8125 221.625 C34.01552734 222.32367188 34.21855469 223.02234375 34.42773438 223.7421875 C39.84841645 243.06343055 38.16333292 264.55552383 38.13037109 284.44042969 C38.12457289 287.97433297 38.12803258 291.50816196 38.13394356 295.04206276 C38.1383998 298.43690219 38.13529661 301.83172095 38.1328125 305.2265625 C38.13483673 306.49609772 38.13686096 307.76563293 38.13894653 309.07363892 C38.13579437 310.23350311 38.13264221 311.39336731 38.12939453 312.58837891 C38.12820114 314.12457382 38.12820114 314.12457382 38.12698364 315.69180298 C38 318 38 318 37 319 C35.54861154 319.10124875 34.09234463 319.13351413 32.63743591 319.13803101 C31.69470322 319.14348434 30.75197052 319.14893768 29.78067017 319.15455627 C28.73728485 319.1555986 27.69389954 319.15664093 26.61889648 319.15771484 C25.5258873 319.16279556 24.43287811 319.16787628 23.30674744 319.17311096 C20.91954296 319.18384937 18.53232819 319.1924558 16.14510918 319.19923019 C12.34522664 319.21101774 8.54545784 319.2304801 4.74562073 319.25234985 C-6.06416154 319.31390137 -16.87393086 319.36784241 -27.68383789 319.40136719 C-34.29224497 319.42195182 -40.90047983 319.45806749 -47.5087719 319.50212479 C-50.00926279 319.51612094 -52.50978884 319.52496938 -55.01031685 319.52817917 C-80.54330841 319.56435858 -107.19519939 320.18073339 -130 333 C-131.0828125 333.48726563 -131.0828125 333.48726563 -132.1875 333.984375 C-134.77132465 335.43220778 -135.08900675 337.26702025 -136 340 C-136.33 340.33 -136.66 340.66 -137 341 C-138.3099391 355.32642254 -135.5002239 368.11310631 -131.81689453 381.89306641 C-130.53685785 386.76149043 -129.39610494 391.66115657 -128.25 396.5625 C-127.86041438 398.20988156 -127.46984759 399.85703152 -127.078125 401.50390625 C-126.91731445 402.18267822 -126.75650391 402.8614502 -126.59082031 403.56079102 C-126.08508703 405.64871715 -125.52374938 407.72304035 -124.95141602 409.79370117 C-123.41841194 415.93745624 -123.66603882 422.1798553 -123.68432617 428.47070312 C-123.6874735 430.73096567 -123.66401925 432.98989975 -123.63867188 435.25 C-123.60264224 443.91851581 -124.33444452 451.66144052 -127 460 C-127.99 460 -128.98 460 -130 460 C-134.14169332 445.98196106 -137.83125638 431.88528181 -141.3359375 417.6953125 C-142.73594025 412.03290139 -144.18971306 406.38724279 -145.6875 400.75 C-146.08603647 399.24091155 -146.48447721 397.73179781 -146.8828125 396.22265625 C-147.4302911 394.15005871 -147.97911617 392.07790396 -148.53417969 390.00732422 C-155.24463319 364.88404099 -161.56694136 336.82049444 -148.125 312.625 C-147.42375 311.75875 -146.7225 310.8925 -146 310 C-145.54625 309.42894531 -145.0925 308.85789062 -144.625 308.26953125 C-128.88011361 289.03944866 -103.00341334 286.76133625 -80 283 C-79.66584743 279.88096281 -79.66584743 279.88096281 -81.96875 277.80859375 C-82.8040625 277.02613281 -83.639375 276.24367188 -84.5 275.4375 C-86.03509839 273.99479179 -87.5439736 272.52247205 -89 271 C-89 270.34 -89 269.68 -89 269 C-89.721875 268.731875 -90.44375 268.46375 -91.1875 268.1875 C-94 267 -94 267 -96.1875 265.375 C-100.48789187 263.2725862 -104.31101606 263.14872613 -109 264 C-115.39601573 266.89050711 -119.74662346 271.54695316 -124 277 C-127.45925163 275.7508258 -130.14693203 274.32472205 -133 272 C-132.06081328 260.96455604 -125.81523176 248.69367331 -118.1875 240.75 C-116 239 -116 239 -114 239 C-114 238.34 -114 237.68 -114 237 C-106.80108021 231.91840956 -99.59139059 231.24290428 -91 232 C-87.88199784 232.75867 -84.95245339 233.74744402 -82 235 C-82 235.66 -82 236.32 -82 237 C-81.2575 237.268125 -80.515 237.53625 -79.75 237.8125 C-77.10938051 238.95276751 -75.14447156 240.09380306 -73 242 C-73 242.66 -73 243.32 -73 244 C-72.01 244.33 -71.02 244.66 -70 245 C-68.17023324 247.04555508 -66.48159 249.07960844 -64.8125 251.25 C-64.3263623 251.87608154 -63.84022461 252.50216309 -63.33935547 253.1472168 C-58.74589972 259.16072904 -54.78304863 265.4438569 -51 272 C-50.47148437 272.90492188 -49.94296875 273.80984375 -49.3984375 274.7421875 C-46 280.6847067 -46 280.6847067 -46 283 C-23.23 283 -0.46 283 23 283 C20.5246093 255.64397476 20.5246093 255.64397476 8.0625 232.875 C6 230 6 230 6 228 C-39.21 228 -84.42 228 -131 228 C-131.99 232.62 -132.98 237.24 -134 242 C-134.91307579 244.82223424 -135.7986376 247.32847722 -137 250 C-137.31324219 250.74121094 -137.62648437 251.48242188 -137.94921875 252.24609375 C-141.49602383 260.02417506 -146.67183167 266.3896058 -152 273 C-152.72058594 273.95261719 -153.44117188 274.90523438 -154.18359375 275.88671875 C-154.78300781 276.58410156 -155.38242188 277.28148437 -156 278 C-156.66 278 -157.32 278 -158 278 C-158.33 278.99 -158.66 279.98 -159 281 C-159.66 281 -160.32 281 -161 281 C-161 281.66 -161 282.32 -161 283 C-161.66 283 -162.32 283 -163 283 C-163 283.66 -163 284.32 -163 285 C-164.98168696 286.75878535 -166.96574446 288.38753736 -169.0625 290 C-169.6915625 290.48694336 -170.320625 290.97388672 -170.96875 291.47558594 C-187.66496182 304.24570834 -205.41513538 316.64214558 -227.1875 316.375 C-228.11369141 316.38660156 -229.03988281 316.39820313 -229.99414062 316.41015625 C-243.44013361 316.35508734 -256.06500488 312.63976217 -268.6875 308.3125 C-269.99182284 307.87171033 -271.29618535 307.43103806 -272.60058594 306.99047852 C-295.82484986 299.08757507 -295.82484986 299.08757507 -306 294 C-305.39938924 287.63352597 -305.39938924 287.63352597 -303.87890625 285.22167969 C-300.9097442 283.29110706 -298.66628094 284.1539017 -295.25 284.765625 C-294.26821777 284.93490509 -294.26821777 284.93490509 -293.26660156 285.10760498 C-291.17457074 285.47255063 -289.08771406 285.8611969 -287 286.25 C-285.5940146 286.49760102 -284.18776602 286.74371247 -282.78125 286.98828125 C-272.69951923 288.76682692 -272.69951923 288.76682692 -269 290 C-244.71405791 292.22127519 -219.48615714 289.07368772 -200 273 C-198.2781246 272.04406917 -196.55620958 271.08820872 -194.83349609 270.13378906 C-191.52246252 268.08632702 -188.70369357 265.4666697 -185.8125 262.875 C-184.61409661 261.80604981 -183.41237114 260.74081 -182.20703125 259.6796875 C-181.6860083 259.21288574 -181.16498535 258.74608398 -180.62817383 258.26513672 C-179 257 -179 257 -176.85766602 255.94213867 C-174.40905629 254.70029547 -174.17333934 253.4622997 -173 251 C-171.31887292 248.98774183 -169.61553082 247.02140652 -167.875 245.0625 C-155.55919266 230.7931508 -147.69694696 216.05079424 -148.515625 196.8828125 C-149.04235712 190.03263472 -151.03589987 184.20975066 -154 178 C-154.45761719 177.03835937 -154.91523438 176.07671875 -155.38671875 175.0859375 C-158.45088275 169.12550889 -162.18086194 163.81167152 -166.265625 158.5078125 C-167.9572258 156.06184919 -168.90321415 153.74435934 -170 151 C-170.680625 150.690625 -171.36125 150.38125 -172.0625 150.0625 C-172.701875 149.711875 -173.34125 149.36125 -174 149 C-175.91979126 141.95390975 -173.16112534 136.322096 -170.8125 129.6875 C-170.41224609 128.48287109 -170.01199219 127.27824219 -169.59960938 126.03710938 C-169.20193359 124.89435547 -168.80425781 123.75160156 -168.39453125 122.57421875 C-168.03206299 121.52838623 -167.66959473 120.48255371 -167.29614258 119.4050293 C-166 117 -166 117 -164.0168457 116.02661133 C-162 116 -162 116 -159.3359375 118 C-158.33164134 118.9826073 -157.34571319 119.98420289 -156.375 121 C-155.85156006 121.53890869 -155.32812012 122.07781738 -154.78881836 122.63305664 C-145.68821215 132.30666909 -138.82174076 143.22979308 -135 156 C-134.68289062 157.03898438 -134.36578125 158.07796875 -134.0390625 159.1484375 C-131.10340805 170.48706614 -132 179.59599601 -132 192 C-91.08 191.67 -50.16 191.34 -8 191 C-12.80225539 184.39689884 -17.03805206 178.61914848 -22.53125 172.77734375 C-24 171 -24 171 -24 169 C-24.66 169 -25.32 169 -26 169 C-26 168.34 -26 167.68 -26 167 C-26.59167969 166.73832031 -27.18335938 166.47664062 -27.79296875 166.20703125 C-30.11699378 164.93601579 -31.51697812 163.62015004 -33.3125 161.6875 C-35.70834652 159.19830881 -38.08070541 157.13058296 -40.9375 155.1875 C-41.948125 154.465625 -42.95875 153.74375 -44 153 C-44 152.34 -44 151.68 -44 151 C-44.71285156 150.74992188 -45.42570312 150.49984375 -46.16015625 150.2421875 C-49.2904751 148.87294212 -51.70867997 147.17645336 -54.4375 145.125 C-55.406875 144.40699219 -56.37625 143.68898437 -57.375 142.94921875 C-58.24125 142.30597656 -59.1075 141.66273438 -60 141 C-63.93457604 138.23742533 -68.0114007 135.73602322 -72.125 133.25 C-73.13820313 132.63640625 -74.15140625 132.0228125 -75.1953125 131.390625 C-78.07552757 129.70385575 -78.07552757 129.70385575 -82 130 C-82.66 131.32 -83.32 132.64 -84 134 C-87.35674873 133.38848836 -89.36889612 132.19133024 -92.0390625 130.09375 C-93.15667969 129.22556641 -93.15667969 129.22556641 -94.296875 128.33984375 C-95.06515625 127.73269531 -95.8334375 127.12554687 -96.625 126.5 C-98.15780715 125.30074391 -99.69161378 124.10276384 -101.2265625 122.90625 C-101.90283691 122.37322266 -102.57911133 121.84019531 -103.27587891 121.29101562 C-104.97722918 119.93716581 -104.97722918 119.93716581 -107 119 C-107 118.34 -107 117.68 -107 117 C-107.556875 116.773125 -108.11375 116.54625 -108.6875 116.3125 C-111.66159588 114.62449964 -113.72008865 112.53323483 -116 110 C-116 109.34 -116 108.68 -116 108 C-116.66 108 -117.32 108 -118 108 C-122.63365976 100.64498451 -120.25241586 88.08335652 -118.69140625 79.97265625 C-116.59943886 70.97837839 -113.94354899 62.84079286 -109 55 C-108.34 55 -107.68 55 -107 55 C-106.814375 54.319375 -106.62875 53.63875 -106.4375 52.9375 C-97.69340709 35.06913623 -71.89998115 26.06583367 -54.734375 19.265625 C-53.45392052 18.75619102 -53.45392052 18.75619102 -52.14759827 18.23646545 C-50.34556467 17.51976094 -48.54323784 16.80379328 -46.7406311 16.08853149 C-44.02324716 15.00923337 -41.30768497 13.92546625 -38.5925293 12.84057617 C-34.11212962 11.05169458 -29.62696974 9.27520006 -25.13891602 7.50561523 C-23.30613763 6.78095139 -21.47479873 6.05263831 -19.64477539 5.32104492 C-16.95279547 4.24552799 -14.25633227 3.18206866 -11.55859375 2.12109375 C-10.73999374 1.79104843 -9.92139374 1.46100311 -9.07798767 1.12095642 C-3.34192211 -1.11397404 -3.34192211 -1.11397404 0 0 Z " fill="#046A39" transform="translate(348,2)"/>
<path d="M0 0 C1.32 0 2.64 0 4 0 C5.38452148 1.47436523 5.38452148 1.47436523 6.62109375 3.55859375 C7.0795166 4.32905029 7.53793945 5.09950684 8.01025391 5.89331055 C8.48124512 6.73289307 8.95223633 7.57247559 9.4375 8.4375 C9.92395996 9.29190674 10.41041992 10.14631348 10.91162109 11.02661133 C24.22342996 35.28383452 22.17483872 63.6144099 22.13037109 90.44042969 C22.12457289 93.97433297 22.12803258 97.50816196 22.13394356 101.04206276 C22.1383998 104.43690219 22.13529661 107.83172095 22.1328125 111.2265625 C22.13483673 112.49609772 22.13686096 113.76563293 22.13894653 115.07363892 C22.13421829 116.81343521 22.13421829 116.81343521 22.12939453 118.58837891 C22.12859894 119.61250885 22.12780334 120.63663879 22.12698364 121.69180298 C22 124 22 124 21 125 C19.54861154 125.10124875 18.09234463 125.13351413 16.63743591 125.13803101 C15.22333687 125.14621101 15.22333687 125.14621101 13.78067017 125.15455627 C12.21559219 125.15611977 12.21559219 125.15611977 10.61889648 125.15771484 C9.5258873 125.16279556 8.43287811 125.16787628 7.30674744 125.17311096 C4.91954296 125.18384937 2.53232819 125.1924558 0.14510918 125.19923019 C-3.65477336 125.21101774 -7.45454216 125.2304801 -11.25437927 125.25234985 C-22.06416154 125.31390137 -32.87393086 125.36784241 -43.68383789 125.40136719 C-50.29224497 125.42195182 -56.90047983 125.45806749 -63.5087719 125.50212479 C-66.00926279 125.51612094 -68.50978884 125.52496938 -71.01031685 125.52817917 C-96.54330841 125.56435858 -123.19519939 126.18073339 -146 139 C-146.721875 139.32484375 -147.44375 139.6496875 -148.1875 139.984375 C-150.77132465 141.43220778 -151.08900675 143.26702025 -152 146 C-152.33 146.33 -152.66 146.66 -153 147 C-154.3099391 161.32642254 -151.5002239 174.11310631 -147.81689453 187.89306641 C-146.53685785 192.76149043 -145.39610494 197.66115657 -144.25 202.5625 C-143.86041438 204.20988156 -143.46984759 205.85703152 -143.078125 207.50390625 C-142.91731445 208.18267822 -142.75650391 208.8614502 -142.59082031 209.56079102 C-142.08508703 211.64871715 -141.52374938 213.72304035 -140.95141602 215.79370117 C-139.41841194 221.93745624 -139.66603882 228.1798553 -139.68432617 234.47070312 C-139.6874735 236.73096567 -139.66401925 238.98989975 -139.63867188 241.25 C-139.60264224 249.91851581 -140.33444452 257.66144052 -143 266 C-143.99 266 -144.98 266 -146 266 C-150.14169332 251.98196106 -153.83125638 237.88528181 -157.3359375 223.6953125 C-158.73594025 218.03290139 -160.18971306 212.38724279 -161.6875 206.75 C-162.08603647 205.24091155 -162.48447721 203.73179781 -162.8828125 202.22265625 C-163.4302911 200.15005871 -163.97911617 198.07790396 -164.53417969 196.00732422 C-171.24463319 170.88404099 -177.56694136 142.82049444 -164.125 118.625 C-163.42375 117.75875 -162.7225 116.8925 -162 116 C-161.54625 115.42894531 -161.0925 114.85789062 -160.625 114.26953125 C-144.88011361 95.03944866 -119.00341334 92.76133625 -96 89 C-95.66584743 85.88096281 -95.66584743 85.88096281 -97.96875 83.80859375 C-98.8040625 83.02613281 -99.639375 82.24367188 -100.5 81.4375 C-102.03509839 79.99479179 -103.5439736 78.52247205 -105 77 C-105 76.34 -105 75.68 -105 75 C-105.721875 74.731875 -106.44375 74.46375 -107.1875 74.1875 C-110 73 -110 73 -112.1875 71.375 C-116.48789187 69.2725862 -120.31101606 69.14872613 -125 70 C-131.39601573 72.89050711 -135.74662346 77.54695316 -140 83 C-143.45925163 81.7508258 -146.14693203 80.32472205 -149 78 C-148.06081328 66.96455604 -141.81523176 54.69367331 -134.1875 46.75 C-132 45 -132 45 -130 45 C-130 44.34 -130 43.68 -130 43 C-122.80108021 37.91840956 -115.59139059 37.24290428 -107 38 C-103.88199784 38.75867 -100.95245339 39.74744402 -98 41 C-98 41.66 -98 42.32 -98 43 C-97.2575 43.268125 -96.515 43.53625 -95.75 43.8125 C-93.10938051 44.95276751 -91.14447156 46.09380306 -89 48 C-89 48.66 -89 49.32 -89 50 C-87.515 50.495 -87.515 50.495 -86 51 C-84.17023324 53.04555508 -82.48159 55.07960844 -80.8125 57.25 C-80.3263623 57.87608154 -79.84022461 58.50216309 -79.33935547 59.1472168 C-74.74589972 65.16072904 -70.78304863 71.4438569 -67 78 C-66.20722656 79.35738281 -66.20722656 79.35738281 -65.3984375 80.7421875 C-62 86.6847067 -62 86.6847067 -62 89 C-39.23 89 -16.46 89 7 89 C4.5246093 61.64397476 4.5246093 61.64397476 -7.9375 38.875 C-10 36 -10 36 -10 34 C-10.66 34 -11.32 34 -12 34 C-11.39346759 29.53187788 -10.26068345 25.63575418 -8.625 21.4375 C-7.99464844 19.79587891 -7.99464844 19.79587891 -7.3515625 18.12109375 C-6 15 -6 15 -4.37109375 12.32421875 C-2.58136265 9.29034409 -2.44911788 6.46462363 -2 3 C-1.34 2.01 -0.68 1.02 0 0 Z " fill="#FAD603" transform="translate(364,196)"/>
<path d="M0 0 C4.39482746 1.57677016 8.27958813 3.83002067 12.25 6.25 C12.9087915 6.64823975 13.56758301 7.04647949 14.24633789 7.45678711 C19.25598906 10.50285641 24.1760176 13.66635363 29 17 C27.02647935 23.08474185 24.62182709 28.92712186 22.125 34.8125 C21.69058594 35.87404297 21.25617188 36.93558594 20.80859375 38.02929688 C20.37933594 39.03669922 19.95007813 40.04410156 19.5078125 41.08203125 C19.12254395 42.00218018 18.73727539 42.9223291 18.34033203 43.87036133 C17 46 17 46 14.96655273 46.86791992 C12.21424162 47.05277409 11.14492853 46.11740557 8.9375 44.5 C5.42557538 42.00972618 1.88855803 39.61544699 -1.75 37.3125 C-2.63171875 36.75175781 -3.5134375 36.19101562 -4.421875 35.61328125 C-6.92990705 34.04386119 -9.45784801 32.51340343 -12 31 C-11.62013828 25.30207426 -9.78544732 20.98811216 -7.3359375 15.85546875 C-5.68578813 12.3283951 -4.28195027 8.73055901 -2.89453125 5.09375 C-2 3 -2 3 0 0 Z " fill="#F8D504" transform="translate(318,359)"/>
<path d="M0 0 C5.99261675 1.57700441 10.80733625 4.74069608 16 8 C16.99644531 8.6084375 17.99289062 9.216875 19.01953125 9.84375 C20.00308594 10.4521875 20.98664063 11.060625 22 11.6875 C22.9075 12.24824219 23.815 12.80898438 24.75 13.38671875 C27 15 27 15 29 18 C27.82348763 22.0664404 25.995186 25.85663431 24.24365234 29.70703125 C23.37900002 31.61616803 22.5458163 33.53694298 21.71484375 35.4609375 C21.17730469 36.66234375 20.63976562 37.86375 20.0859375 39.1015625 C19.5914209 40.20838379 19.0969043 41.31520508 18.58740234 42.45556641 C17 45 17 45 14.98510742 45.95654297 C11.68769652 46.02872833 9.65237338 44.26813139 6.9375 42.5 C6.37184326 42.13487305 5.80618652 41.76974609 5.22338867 41.39355469 C4.05398207 40.63846615 2.88740416 39.87897958 1.72363281 39.11523438 C0.09371561 38.06063639 -1.56579154 37.0521843 -3.2265625 36.046875 C-4.20367187 35.45390625 -5.18078125 34.8609375 -6.1875 34.25 C-7.06792969 33.71890625 -7.94835937 33.1878125 -8.85546875 32.640625 C-11.25795441 30.80265783 -12.07211443 29.86317208 -13 27 C-12.24902344 24.28271484 -12.24902344 24.28271484 -10.859375 21.2109375 C-10.36566406 20.10492188 -9.87195313 18.99890625 -9.36328125 17.859375 C-8.56470703 16.13460938 -8.56470703 16.13460938 -7.75 14.375 C-7.23308594 13.21742188 -6.71617187 12.05984375 -6.18359375 10.8671875 C-2.31887993 2.31887993 -2.31887993 2.31887993 0 0 Z " fill="#F9D603" transform="translate(356,342)"/>
<path d="M0 0 C5.55678849 4.72327022 7.78893295 11.65515918 9.6875 18.4375 C9.89955078 19.14970703 10.11160156 19.86191406 10.33007812 20.59570312 C15.89502002 39.92378208 14.16339989 61.51512214 14.13037109 81.44042969 C14.12457289 84.97433297 14.12803258 88.50816196 14.13394356 92.04206276 C14.1383998 95.43690219 14.13529661 98.83172095 14.1328125 102.2265625 C14.13483673 103.49609772 14.13686096 104.76563293 14.13894653 106.07363892 C14.13421829 107.81343521 14.13421829 107.81343521 14.12939453 109.58837891 C14.12859894 110.61250885 14.12780334 111.63663879 14.12698364 112.69180298 C14 115 14 115 13 116 C11.54861154 116.10124875 10.09234463 116.13351413 8.63743591 116.13803101 C7.22333687 116.14621101 7.22333687 116.14621101 5.78067017 116.15455627 C4.21559219 116.15611977 4.21559219 116.15611977 2.61889648 116.15771484 C1.5258873 116.16279556 0.43287811 116.16787628 -0.69325256 116.17311096 C-3.08045704 116.18384937 -5.46767181 116.1924558 -7.85489082 116.19923019 C-11.65477336 116.21101774 -15.45454216 116.2304801 -19.25437927 116.25234985 C-30.06416154 116.31390137 -40.87393086 116.36784241 -51.68383789 116.40136719 C-58.29224497 116.42195182 -64.90047983 116.45806749 -71.5087719 116.50212479 C-74.00926279 116.51612094 -76.50978884 116.52496938 -79.01031685 116.52817917 C-100.08962328 116.55804785 -120.80648128 117.35239747 -140.9296875 124.109375 C-144 125 -144 125 -146 124 C-145.505 123.01 -145.505 123.01 -145 122 C-143.25 121.47265625 -143.25 121.47265625 -141 121.0625 C-136.93228171 120.24766295 -133.13417318 119.09961473 -129.23828125 117.68359375 C-113.31731103 112.82116829 -94.25396286 114.8674464 -77.84375 114.90234375 C-75.24344917 114.90421241 -72.64314799 114.90563419 -70.04284668 114.90663147 C-63.94119868 114.9100358 -57.83957183 114.91788533 -51.73793173 114.92798096 C-44.78001729 114.93923839 -37.82210188 114.94467658 -30.86418056 114.94967639 C-16.5761106 114.96007125 -2.28805596 114.97761003 12 115 C11.89156982 106.78404335 11.77876704 98.56816244 11.66066074 90.35233974 C11.60592737 86.53578056 11.55259764 82.71921341 11.50268555 78.90258789 C11.45429681 75.20666666 11.40194726 71.51081931 11.34705925 67.81498909 C11.3269669 66.41790719 11.30820781 65.02080533 11.29092598 63.62368584 C11.35162932 45.16492037 11.35162932 45.16492037 8.0625 27.125 C6.87747335 23.04987238 5.75124874 19.04029015 4.9375 14.875 C4.06120629 11.25298598 2.93306419 9.10971196 1 6 C0.3125 2.6875 0.3125 2.6875 0 0 Z " fill="#A1B51F" transform="translate(372,205)"/>
<path d="M0 0 C0.99 0 1.98 0 3 0 C4.84374341 6.91403778 5.19254507 13.44642582 5.1875 20.5625 C5.18814453 21.46774414 5.18878906 22.37298828 5.18945312 23.30566406 C5.13468565 29.86531435 5.13468565 29.86531435 4 31 C1.8492375 31.12589847 -0.30569731 31.18084814 -2.45996094 31.20874023 C-3.13482544 31.21852402 -3.80968994 31.2283078 -4.50500488 31.23838806 C-6.74810802 31.26840719 -8.99115113 31.2897478 -11.234375 31.30859375 C-11.99949654 31.31516558 -12.76461807 31.3217374 -13.55292511 31.32850838 C-17.60460053 31.36113416 -21.65624934 31.38557429 -25.70800781 31.4050293 C-29.06256424 31.4228329 -32.41627847 31.45763088 -35.77050781 31.50756836 C-39.81772709 31.56775883 -43.86416626 31.59850359 -47.91181183 31.60820198 C-49.45403358 31.61676234 -50.99623418 31.63559526 -52.53820038 31.6649456 C-54.70054238 31.70388026 -56.85985141 31.70489475 -59.02246094 31.69702148 C-60.86659576 31.71248268 -60.86659576 31.71248268 -62.74798584 31.72825623 C-67.37304827 30.6925195 -68.42084229 28.92100351 -71 25 C-71.3125 21.625 -71.3125 21.625 -71 19 C-68.12239928 22.40080085 -67.53048177 24.40855469 -66 29 C-43.23 29 -20.46 29 3 29 C1.64201109 14.48436529 1.64201109 14.48436529 0 0 Z " fill="#A1BB28" transform="translate(368,256)"/>
<path d="M0 0 C2.62272108 0.00186862 5.24544251 0.00329042 7.86816406 0.00428772 C14.02293504 0.00737068 20.17768783 0.01554225 26.33245087 0.02563721 C33.35082367 0.03689376 40.36919744 0.04233261 47.38757706 0.04733264 C61.80006067 0.05772813 76.21253008 0.07526748 90.625 0.09765625 C90.625 0.42765625 90.625 0.75765625 90.625 1.09765625 C90.04929008 1.1000446 89.47358017 1.10243296 88.8804245 1.10489368 C74.75181175 1.16450861 60.62335982 1.24034514 46.49492645 1.33337116 C39.66199809 1.377986 32.8291179 1.41747524 25.99609375 1.4440918 C19.38234056 1.46986962 12.76878924 1.51099681 6.15516663 1.56084251 C3.65188851 1.5773245 1.14857282 1.58895336 -1.35475159 1.59527016 C-22.43831876 1.65377036 -43.17749296 2.44877375 -63.3046875 9.20703125 C-66.375 10.09765625 -66.375 10.09765625 -68.375 9.09765625 C-68.045 8.43765625 -67.715 7.77765625 -67.375 7.09765625 C-65.625 6.5703125 -65.625 6.5703125 -63.375 6.16015625 C-59.30728171 5.3453192 -55.50917318 4.19727098 -51.61328125 2.78125 C-35.62651878 -2.10126908 -16.4757778 -0.03472984 0 0 Z " fill="#C6D943" transform="translate(294.375,319.90234375)"/>
<path d="M0 0 C1.88020169 2.82030254 2.48261874 4.39189919 3.21875 7.60546875 C3.53392578 8.95801758 3.53392578 8.95801758 3.85546875 10.33789062 C4.06816406 11.27826172 4.28085938 12.21863281 4.5 13.1875 C4.92670099 15.03524459 5.35377895 16.88290216 5.78125 18.73046875 C5.96751953 19.54926514 6.15378906 20.36806152 6.34570312 21.21166992 C6.86715935 23.43389067 7.45169929 25.64128184 8.05737305 27.84204102 C9.58982185 33.96666723 9.33390662 40.19862233 9.31567383 46.47070312 C9.3125265 48.73096567 9.33598075 50.98989975 9.36132812 53.25 C9.39735776 61.91851581 8.66555548 69.66144052 6 78 C5.01 78 4.02 78 3 78 C0.57142857 71.71428571 0.57142857 71.71428571 2 68 C2.99 69.32 3.98 70.64 5 72 C6.05815149 64.19507462 6.18346819 56.49509867 6.1875 48.625 C6.19974609 47.37460937 6.21199219 46.12421875 6.22460938 44.8359375 C6.42176507 32.57778944 6.42176507 32.57778944 2.9699707 20.98193359 C1.8680889 18.73046708 1.60264082 16.942203 1.3671875 14.453125 C1.28339844 13.60878906 1.19960937 12.76445312 1.11328125 11.89453125 C1.03464844 11.02183594 0.95601562 10.14914062 0.875 9.25 C0.78863281 8.36183594 0.70226562 7.47367187 0.61328125 6.55859375 C0.40176934 4.37297064 0.19759773 2.18691762 0 0 Z " fill="#B5BB1F" transform="translate(215,384)"/>
<path d="M0 0 C1.32 0.33 2.64 0.66 4 1 C2.54550599 2.0055761 1.08627557 3.00430435 -0.375 4 C-1.59316406 4.8353125 -1.59316406 4.8353125 -2.8359375 5.6875 C-5 7 -5 7 -7 7 C-7.309375 7.804375 -7.61875 8.60875 -7.9375 9.4375 C-9 12 -9 12 -10 13 C-10.76220377 24.58299821 -9.76402898 35.11702783 -6.875 46.33984375 C-6 50 -6 50 -6 54 C-6.66 54 -7.32 54 -8 54 C-8 53.34 -8 52.68 -8 52 C-8.66 52 -9.32 52 -10 52 C-10 49.36 -10 46.72 -10 44 C-10.66 43.67 -11.32 43.34 -12 43 C-12.37890625 40.3828125 -12.37890625 40.3828125 -12.5625 37.125 C-12.75886324 33.79884716 -12.94375608 31.16873175 -14 28 C-14.12047541 25.66894093 -14.17534303 23.33413858 -14.1875 21 C-14.20167969 19.7625 -14.21585938 18.525 -14.23046875 17.25 C-14 14 -14 14 -12 11 C-12 9.68 -12 8.36 -12 7 C-11.195625 6.71125 -10.39125 6.4225 -9.5625 6.125 C-6.8673532 5.26737432 -6.8673532 5.26737432 -6 3 C-2.9375 2.375 -2.9375 2.375 0 2 C0 1.34 0 0.68 0 0 Z " fill="#A4BA1C" transform="translate(221,330)"/>
<path d="M0 0 C3.45925163 1.2491742 6.14693203 2.67527795 9 5 C7.02647935 11.08474185 4.62182709 16.92712186 2.125 22.8125 C1.69058594 23.87404297 1.25617188 24.93558594 0.80859375 26.02929688 C0.37933594 27.03669922 -0.04992187 28.04410156 -0.4921875 29.08203125 C-1.07009033 30.46225464 -1.07009033 30.46225464 -1.65966797 31.87036133 C-3 34 -3 34 -5.02026367 34.87670898 C-7.88745297 35.05526745 -9.14397659 33.91946245 -11.4375 32.25 C-12.21867187 31.69570313 -12.99984375 31.14140625 -13.8046875 30.5703125 C-14.52914063 30.05210937 -15.25359375 29.53390625 -16 29 C-17.65764498 27.98511532 -19.31915242 26.97597602 -21 26 C-17.98968256 25.06576355 -17.13349732 24.95550089 -14 26 C-14 26.99 -14 27.98 -14 29 C-11.69 29 -9.38 29 -7 29 C-7 29.66 -7 30.32 -7 31 C-6.01 31 -5.02 31 -4 31 C-3.67 28.69 -3.34 26.38 -3 24 C-2.34 24 -1.68 24 -1 24 C-0.82984375 23.45472656 -0.6596875 22.90945313 -0.484375 22.34765625 C1.32540814 16.71615022 3.50345378 11.36060431 6 6 C5.34 6 4.68 6 4 6 C4 5.34 4 4.68 4 4 C3.01 3.67 2.02 3.34 1 3 C0.67 2.01 0.34 1.02 0 0 Z " fill="#BEC41C" transform="translate(338,371)"/>
<path d="M0 0 C0 0.66 0 1.32 0 2 C0.804375 2.28875 1.60875 2.5775 2.4375 2.875 C5 4 5 4 6 6 C3.0625 5.625 3.0625 5.625 0 5 C-0.495 4.01 -0.495 4.01 -1 3 C-3.11846285 2.31270746 -3.11846285 2.31270746 -5.5625 1.875 C-6.38878906 1.70742187 -7.21507812 1.53984375 -8.06640625 1.3671875 C-8.70449219 1.24601563 -9.34257812 1.12484375 -10 1 C-10 0.34 -10 -0.32 -10 -1 C-12.97 -1.33 -15.94 -1.66 -19 -2 C-19 -1.34 -19 -0.68 -19 0 C-21.97 0.66 -24.94 1.32 -28 2 C-28 2.66 -28 3.32 -28 4 C-28.99 4 -29.98 4 -31 4 C-31.226875 4.7425 -31.45375 5.485 -31.6875 6.25 C-33.266155 9.55765809 -34.99614099 10.94858409 -38 13 C-38.99 13.33 -39.98 13.66 -41 14 C-39.60846256 9.57238086 -37.47928514 7.0443745 -34 4 C-33.34 4 -32.68 4 -32 4 C-32 3.34 -32 2.68 -32 2 C-22.22355338 -4.90102115 -10.70698785 -4.54235848 0 0 Z " fill="#BBCB1E" transform="translate(266,237)"/>
<path d="M0 0 C5.55678849 4.72327022 7.78893295 11.65515918 9.6875 18.4375 C9.89955078 19.14970703 10.11160156 19.86191406 10.33007812 20.59570312 C12.47713597 28.05283461 13.13168281 35.25152503 13.0625 43 C13.05798828 43.67933594 13.05347656 44.35867187 13.04882812 45.05859375 C13.0372283 46.70576874 13.01930199 48.35289726 13 50 C12.34 50 11.68 50 11 50 C10.97421875 49.09121094 10.9484375 48.18242187 10.921875 47.24609375 C10.54274246 38.84486132 9.33259803 31.49267523 6.9765625 23.390625 C6.15966508 20.55435715 5.50275867 17.76835796 4.9375 14.875 C4.06120629 11.25298598 2.93306419 9.10971196 1 6 C0.3125 2.6875 0.3125 2.6875 0 0 Z " fill="#A5C126" transform="translate(372,205)"/>
<path d="M0 0 C0.33 1.32 0.66 2.64 1 4 C0.34 4 -0.32 4 -1 4 C-2.06962037 8.88969313 -3 13.98536109 -3 19 C0.96 18.505 0.96 18.505 5 18 C5.33 16.02 5.66 14.04 6 12 C7.65 12.33 9.3 12.66 11 13 C11.103125 12.360625 11.20625 11.72125 11.3125 11.0625 C11.6528125 10.0415625 11.6528125 10.0415625 12 9 C15.42232972 7.85922343 18.08673217 7.90184883 21.6875 7.9375 C23.45673828 7.95103516 23.45673828 7.95103516 25.26171875 7.96484375 C26.16535156 7.97644531 27.06898438 7.98804688 28 8 C28 8.33 28 8.66 28 9 C27.07380859 9.00386719 27.07380859 9.00386719 26.12890625 9.0078125 C18.02875562 9.37768239 12.73723271 12.14718278 7.10546875 17.953125 C5.68403963 19.59093092 4.33376406 21.29004608 3 23 C-0.45925163 21.7508258 -3.14693203 20.32472205 -6 18 C-5.42912225 11.29218641 -2.98548202 5.97096403 0 0 Z " fill="#B6C91E" transform="translate(221,256)"/>
<path d="M0 0 C-0.33 1.32 -0.66 2.64 -1 4 C-2.28777344 4.13277344 -3.57554687 4.26554687 -4.90234375 4.40234375 C-6.58075362 4.58049899 -8.25913773 4.75889692 -9.9375 4.9375 C-10.78763672 5.02451172 -11.63777344 5.11152344 -12.51367188 5.20117188 C-13.32255859 5.28818359 -14.13144531 5.37519531 -14.96484375 5.46484375 C-15.7137085 5.543396 -16.46257324 5.62194824 -17.23413086 5.70288086 C-19.02140013 5.8280738 -19.02140013 5.8280738 -20 7 C-21.34015221 7.15582303 -22.68758903 7.25044142 -24.03515625 7.31640625 C-24.84404297 7.35830078 -25.65292969 7.40019531 -26.48632812 7.44335938 C-27.7615332 7.50233398 -27.7615332 7.50233398 -29.0625 7.5625 C-29.91650391 7.60568359 -30.77050781 7.64886719 -31.65039062 7.69335938 C-33.76672037 7.79976702 -35.88333813 7.90041731 -38 8 C-38 7.67 -38 7.34 -38 7 C-34.7504661 6.37256049 -31.50037733 5.74805535 -28.25 5.125 C-27.29311279 4.94155029 -26.33622559 4.75810059 -25.3503418 4.5690918 C-19.27351271 3.41172296 -13.19716178 2.33060989 -7.08203125 1.39453125 C-4.32432297 0.87196364 -2.92489442 0 0 0 Z " fill="#B3C320" transform="translate(273,284)"/>
<path d="M0 0 C1.32 0.33 2.64 0.66 4 1 C2.54550599 2.0055761 1.08627557 3.00430435 -0.375 4 C-1.59316406 4.8353125 -1.59316406 4.8353125 -2.8359375 5.6875 C-5 7 -5 7 -7 7 C-7.28875 7.78375 -7.5775 8.5675 -7.875 9.375 C-9 12 -9 12 -11 14 C-11.30675232 16.89967757 -11.51173371 19.71783178 -11.625 22.625 C-11.66367188 23.42679687 -11.70234375 24.22859375 -11.7421875 25.0546875 C-11.83653931 27.03607556 -11.91936215 29.01800645 -12 31 C-14.45281911 27.32077133 -14.26823919 25.37740649 -14.25 21 C-14.25515625 19.7625 -14.2603125 18.525 -14.265625 17.25 C-14 14 -14 14 -12 11 C-12 9.68 -12 8.36 -12 7 C-11.195625 6.71125 -10.39125 6.4225 -9.5625 6.125 C-6.8673532 5.26737432 -6.8673532 5.26737432 -6 3 C-2.9375 2.375 -2.9375 2.375 0 2 C0 1.34 0 0.68 0 0 Z " fill="#D7D41D" transform="translate(221,330)"/>
<path d="M0 0 C0.83144531 0.00451172 1.66289062 0.00902344 2.51953125 0.01367188 C4.55471897 0.02536836 6.58986923 0.04330065 8.625 0.0625 C8.625 0.3925 8.625 0.7225 8.625 1.0625 C7.98699463 1.12719482 7.34898926 1.19188965 6.69165039 1.25854492 C-4.95329171 2.47667885 -16.23236431 3.78655226 -27.37084961 7.52416992 C-29.02558964 8.07839607 -30.69900113 8.57633239 -32.375 9.0625 C-33.035 8.7325 -33.695 8.4025 -34.375 8.0625 C-34.045 7.4025 -33.715 6.7425 -33.375 6.0625 C-31.625 5.53515625 -31.625 5.53515625 -29.375 5.125 C-25.30728171 4.31016295 -21.50917318 3.16211473 -17.61328125 1.74609375 C-11.75767701 -0.04226706 -6.05826771 -0.06280501 0 0 Z " fill="#ABC122" transform="translate(260.375,320.9375)"/>
<path d="M0 0 C0 0.99 0 1.98 0 3 C-3.50538557 4.96301592 -7.13351728 5.95902388 -11 7 C-11 7.99 -11 8.98 -11 10 C-12.0725 9.938125 -13.145 9.87625 -14.25 9.8125 C-18.24881248 10.01244062 -19.05428447 10.5803051 -22 13 C-22.99 12.67 -23.98 12.34 -25 12 C-21.65453947 8.13394485 -18.07193481 6.34989619 -13.5 4.3125 C-12.50419922 3.85133789 -12.50419922 3.85133789 -11.48828125 3.38085938 C-4.07554363 0 -4.07554363 0 0 0 Z " fill="#BAC31B" transform="translate(235,292)"/>
<path d="M0 0 C2.1875 0.875 2.1875 0.875 7.1875 5.875 C3.2275 14.785 3.2275 14.785 -0.8125 23.875 C-1.1425 23.875 -1.4725 23.875 -1.8125 23.875 C-2.01336443 20.15900809 -1.9644437 19.10291555 0.1875 15.875 C0.52987135 13.9237167 0.52987135 13.9237167 0.625 11.875 C0.99797844 8.1175876 0.99797844 8.1175876 2.75 5.875 C3.224375 5.545 3.69875 5.215 4.1875 4.875 C2.5375 5.535 0.8875 6.195 -0.8125 6.875 C-0.8125 5.555 -0.8125 4.235 -0.8125 2.875 C-1.8025 2.215 -2.7925 1.555 -3.8125 0.875 C-1.8125 -0.125 -1.8125 -0.125 0 0 Z " fill="#D8CC16" transform="translate(377.8125,354.125)"/>
<path d="M0 0 C1.32 0 2.64 0 4 0 C7.22265625 5.2734375 7.22265625 5.2734375 8 7 C7.67 7.66 7.34 8.32 7 9 C6.01 9 5.02 9 4 9 C1.89179203 9.3185177 1.89179203 9.3185177 0 10 C-0.33 10.66 -0.66 11.32 -1 12 C-1.66 12 -2.32 12 -3 12 C-2.88541307 10.56163249 -2.75790884 9.12429034 -2.625 7.6875 C-2.55539062 6.88699219 -2.48578125 6.08648437 -2.4140625 5.26171875 C-2 3 -2 3 0 0 Z " fill="#F2D70D" transform="translate(364,196)"/>
<path d="M0 0 C4.77609498 1.64178265 8.79382904 4.26546702 13 7 C12.01 7.33 11.02 7.66 10 8 C9.4225 7.67 8.845 7.34 8.25 7 C4.98560017 5.54915563 2.43155506 6.34008557 -1 7 C-1 7.66 -1 8.32 -1 9 C-1.66 9 -2.32 9 -3 9 C-3 10.32 -3 11.64 -3 13 C-3.66 13 -4.32 13 -5 13 C-4.48474397 7.71862571 -2.74522883 4.42778844 0 0 Z " fill="#ACB51D" transform="translate(318,359)"/>
<path d="M0 0 C3.45925163 1.2491742 6.14693203 2.67527795 9 5 C7.64474464 9.21775732 6.09799886 13.29421322 4.375 17.375 C3.92898438 18.43460937 3.48296875 19.49421875 3.0234375 20.5859375 C2.68570312 21.38257813 2.34796875 22.17921875 2 23 C0.3147916 18.92320841 1.83060993 16.16924407 3.4375 12.25 C3.91058594 11.07953125 4.38367188 9.9090625 4.87109375 8.703125 C5.24363281 7.81109375 5.61617188 6.9190625 6 6 C5.34 6 4.68 6 4 6 C4 5.34 4 4.68 4 4 C3.01 3.67 2.02 3.34 1 3 C0.67 2.01 0.34 1.02 0 0 Z " fill="#A7B723" transform="translate(338,371)"/>
<path d="M0 0 C6.12207645 5.20376499 7.49865089 11.46357776 8.5625 19.0625 C8.93972934 21.59532556 9.45235119 23.97112104 10.125 26.4375 C10.87416115 29.48765611 11.19439839 31.88962569 11 35 C8.97112814 31.95669221 8.33643629 29.89348744 7.5 26.375 C7.2421875 25.30894531 6.984375 24.24289063 6.71875 23.14453125 C6.10435105 20.45653582 5.54505315 17.76505519 5 15.0625 C4.2462809 11.54092171 2.90673986 9.06736412 1 6 C0.3125 2.6875 0.3125 2.6875 0 0 Z " fill="#E6D415" transform="translate(372,205)"/>
<path d="M0 0 C1.88630186 2.82945279 2.50114445 4.44844491 3.25390625 7.67578125 C3.46853516 8.58650391 3.68316406 9.49722656 3.90429688 10.43554688 C4.12150391 11.38494141 4.33871094 12.33433594 4.5625 13.3125 C4.78357422 14.25029297 5.00464844 15.18808594 5.23242188 16.15429688 C6.30490097 20.75202449 7.30337601 25.32714023 8 30 C2.64839823 23.62904551 1.47835483 17.09551925 0.8125 9.0625 C0.73064453 8.18787109 0.64878906 7.31324219 0.56445312 6.41210938 C0.36598634 4.27567277 0.18154346 2.13794116 0 0 Z " fill="#9FC220" transform="translate(215,384)"/>
<path d="M0 0 C0.33 0 0.66 0 1 0 C2.0525394 5.26269702 2.0525394 5.26269702 2 8 C0.125 10.3125 0.125 10.3125 -2 12 C-2.33 12.99 -2.66 13.98 -3 15 C-2.34 15 -1.68 15 -1 15 C-1 15.99 -1 16.98 -1 18 C-0.34 18.33 0.32 18.66 1 19 C0.34 19.33 -0.32 19.66 -1 20 C-2.65 18.68 -4.3 17.36 -6 16 C-4.25192871 10.53262809 -2.34205919 5.24175152 0 0 Z " fill="#B2B920" transform="translate(349,355)"/>
<path d="M0 0 C0.99 0 1.98 0 3 0 C3.36368892 1.60203467 3.71561952 3.20674203 4.0625 4.8125 C4.25972656 5.70582031 4.45695312 6.59914063 4.66015625 7.51953125 C5 10 5 10 4 13 C3.92948886 15.73865287 3.90642235 18.45027588 3.9375 21.1875 C3.94201172 21.93708984 3.94652344 22.68667969 3.95117188 23.45898438 C3.96293646 25.30602383 3.98087135 27.15302213 4 29 C3.67 29 3.34 29 3 29 C2.94465088 28.40574219 2.88930176 27.81148438 2.83227539 27.19921875 C2.57696823 24.46602411 2.3197462 21.73301279 2.0625 19 C1.97548828 18.06542969 1.88847656 17.13085938 1.79882812 16.16796875 C1.28868841 10.76426653 0.7044679 5.38188093 0 0 Z " fill="#AFBF20" transform="translate(368,256)"/>
<path d="M0 0 C3.02419525 0.58803797 6.01758453 1.22678118 9 2 C9 2.66 9 3.32 9 4 C11.64 4.33 14.28 4.66 17 5 C17.33 5.99 17.66 6.98 18 8 C17.67 8.66 17.34 9.32 17 10 C13.45207016 8.69616712 10.48746794 7.13915322 7.375 5 C6.61960937 4.484375 5.86421875 3.96875 5.0859375 3.4375 C4.39757812 2.963125 3.70921875 2.48875 3 2 C2.01 1.34 1.02 0.68 0 0 Z " fill="#D2CC16" transform="translate(349,375)"/>
<path d="M0 0 C2.63740372 3.26535698 4.03781867 6.07563735 6 10 C14.25 10.33 22.5 10.66 31 11 C31 11.33 31 11.66 31 12 C26.77135555 12.17449702 22.54363749 12.28092495 18.3125 12.375 C16.51522461 12.45041016 16.51522461 12.45041016 14.68164062 12.52734375 C6.04600957 12.67167185 6.04600957 12.67167185 3.06323242 10.75634766 C0.732168 8.09806549 0.01232577 6.13311832 -0.3125 2.625 C-0.209375 1.75875 -0.10625 0.8925 0 0 Z " fill="#D4D224" transform="translate(297,275)"/>
<path d="M0 0 C1.32 0 2.64 0 4 0 C4 0.66 4 1.32 4 2 C3.01 2 2.02 2 1 2 C0.773125 2.7425 0.54625 3.485 0.3125 4.25 C-1.266155 7.55765809 -2.99614099 8.94858409 -6 11 C-6.99 11.33 -7.98 11.66 -9 12 C-7.60846256 7.57238086 -5.47928514 5.0443745 -2 2 C-1.34 2 -0.68 2 0 2 C0 1.34 0 0.68 0 0 Z " fill="#BDC91B" transform="translate(234,239)"/>
<path d="M0 0 C1.12793443 3.33081308 0.87365459 5.21699392 -0.3125 8.5 C-0.57675781 9.2528125 -0.84101563 10.005625 -1.11328125 10.78125 C-1.96985878 12.92458057 -2.93712336 14.95233561 -4 17 C-4.33 17.66 -4.66 18.32 -5 19 C-5.33 18.67 -5.66 18.34 -6 18 C-5.71000675 11.33015524 -2.90353507 5.92492581 0 0 Z " fill="#ABC321" transform="translate(312,372)"/>
<path d="M0 0 C2.22717505 4.45435011 2.0411159 5.3623019 1 10 C0.814375 10.94875 0.62875 11.8975 0.4375 12.875 C0.293125 13.57625 0.14875 14.2775 0 15 C-0.99 15 -1.98 15 -3 15 C-5.42857143 8.71428571 -5.42857143 8.71428571 -4 5 C-3.01 6.32 -2.02 7.64 -1 9 C-0.67 6.03 -0.34 3.06 0 0 Z " fill="#A1C028" transform="translate(221,447)"/>
<path d="M0 0 C0.66 0.33 1.32 0.66 2 1 C1.01 2.98 0.02 4.96 -1 7 C-1.66 7 -2.32 7 -3 7 C-3 7.66 -3 8.32 -3 9 C-3.66 9 -4.32 9 -5 9 C-5 9.66 -5 10.32 -5 11 C-5.66 11 -6.32 11 -7 11 C-7.66 12.32 -8.32 13.64 -9 15 C-9 8.80668482 -3.920458 4.40258553 0 0 Z " fill="#A0BF1C" transform="translate(208,305)"/>
<path d="M0 0 C0.66 0 1.32 0 2 0 C1.60404157 1.48484412 1.18249294 2.9628831 0.75 4.4375 C0.40195312 5.67306641 0.40195312 5.67306641 0.046875 6.93359375 C-1 9 -1 9 -3 9.875 C-5 10 -5 10 -6.75 8.5625 C-7.1625 8.046875 -7.575 7.53125 -8 7 C-6.35 7 -4.7 7 -3 7 C-2.67 5.35 -2.34 3.7 -2 2 C-1.34 2 -0.68 2 0 2 C0 1.34 0 0.68 0 0 Z " fill="#ADC521" transform="translate(374,378)"/>
<path d="M0 0 C0 0.99 0 1.98 0 3 C-1.37285156 3.61488281 -1.37285156 3.61488281 -2.7734375 4.2421875 C-4.55621094 5.05042969 -4.55621094 5.05042969 -6.375 5.875 C-8.15003906 6.67550781 -8.15003906 6.67550781 -9.9609375 7.4921875 C-13.02247043 8.8096989 -13.02247043 8.8096989 -15 11 C-17.625 11.125 -17.625 11.125 -20 11 C-16.0172612 7.50447002 -11.97267714 5.38386847 -7.1875 3.25 C-6.49462891 2.93417969 -5.80175781 2.61835938 -5.08789062 2.29296875 C-3.39479329 1.52231755 -1.69778588 0.76026638 0 0 Z " fill="#087E40" transform="translate(288,23)"/>
<path d="M0 0 C0.33 1.32 0.66 2.64 1 4 C0.34 4 -0.32 4 -1 4 C-1.66354514 7.03334919 -2.14182526 10.04356022 -2.5 13.125 C-3 17 -3 17 -4 20 C-4.66 19.34 -5.32 18.68 -6 18 C-5.72782525 11.33171857 -2.94254978 5.88509955 0 0 Z " fill="#94C125" transform="translate(221,256)"/>
<path d="M0 0 C1.32 0 2.64 0 4 0 C7.22265625 5.2734375 7.22265625 5.2734375 8 7 C7.67 7.66 7.34 8.32 7 9 C5.29159719 7.36587557 4.06546953 6.13093906 3 4 C1.68 4 0.36 4 -1 4 C-1.33 5.32 -1.66 6.64 -2 8 C-2.20086443 4.28400809 -2.1519437 3.22791555 0 0 Z " fill="#9DB522" transform="translate(364,196)"/>
<path d="M0 0 C0.66 0 1.32 0 2 0 C2.06058594 0.63808594 2.12117187 1.27617187 2.18359375 1.93359375 C2.26738281 2.75988281 2.35117188 3.58617187 2.4375 4.4375 C2.55931641 5.67306641 2.55931641 5.67306641 2.68359375 6.93359375 C2.78930815 8.98662025 2.78930815 8.98662025 4 10 C4.23363881 11.84891946 4.41303635 13.70488031 4.5625 15.5625 C4.64628906 16.57441406 4.73007813 17.58632813 4.81640625 18.62890625 C4.90728516 19.80259766 4.90728516 19.80259766 5 21 C2.7419395 17.61290925 2.20005092 15.03357841 1.375 11.0625 C1.11460937 9.83660156 0.85421875 8.61070312 0.5859375 7.34765625 C0 4 0 4 0 0 Z " fill="#A6BF23" transform="translate(195,367)"/>
<path d="M0 0 C0 0.33 0 0.66 0 1 C-3.3 1 -6.6 1 -10 1 C-10 1.66 -10 2.32 -10 3 C-16.96428571 5.27678571 -16.96428571 5.27678571 -21 4 C-13.94912244 0.01162482 -8.01426231 -0.48817841 0 0 Z " fill="#98BA24" transform="translate(257,234)"/>
<path d="M0 0 C2 2 2 2 2 5 C2.66 5 3.32 5 4 5 C4.33 7.64 4.66 10.28 5 13 C4.34 13 3.68 13 3 13 C3 12.34 3 11.68 3 11 C2.34 11 1.68 11 1 11 C1 8.36 1 5.72 1 3 C0.34 2.67 -0.32 2.34 -1 2 C-0.67 1.34 -0.34 0.68 0 0 Z " fill="#C6C516" transform="translate(210,371)"/>
<path d="M0 0 C5.26308032 1.41204594 8.7562988 3.68991307 13 7 C13 7.33 13 7.66 13 8 C11.02 8 9.04 8 7 8 C7 7.01 7 6.02 7 5 C6.34 5 5.68 5 5 5 C5 4.34 5 3.68 5 3 C3.35 2.67 1.7 2.34 0 2 C0 1.34 0 0.68 0 0 Z " fill="#B4C321" transform="translate(363,346)"/>
<path d="M0 0 C0.66 0.33 1.32 0.66 2 1 C0.5489926 2.83913695 -0.91101659 4.6711753 -2.375 6.5 C-3.18710938 7.5209375 -3.99921875 8.541875 -4.8359375 9.59375 C-5.55007812 10.3878125 -6.26421875 11.181875 -7 12 C-7.66 12 -8.32 12 -9 12 C-7.54718935 6.67302761 -3.91888622 3.63597198 0 0 Z " fill="#067B41" transform="translate(250,45)"/>
<path d="M0 0 C0.33 0 0.66 0 1 0 C1.66 3.96 2.32 7.92 3 12 C3.66 12 4.32 12 5 12 C5 14.64 5 17.28 5 20 C1.18964906 14.28447359 -0.55570361 6.8536779 0 0 Z " fill="#A2B326" transform="translate(200,388)"/>
<path d="M0 0 C1.32 0.33 2.64 0.66 4 1 C2.54550599 2.0055761 1.08627557 3.00430435 -0.375 4 C-1.59316406 4.8353125 -1.59316406 4.8353125 -2.8359375 5.6875 C-5 7 -5 7 -7 7 C-7.33 7.99 -7.66 8.98 -8 10 C-8.33 9.01 -8.66 8.02 -9 7 C-7.9375 4.875 -7.9375 4.875 -6 3 C-2.8125 2.25 -2.8125 2.25 0 2 C0 1.34 0 0.68 0 0 Z " fill="#9ABE20" transform="translate(221,330)"/>
<path d="M0 0 C0.66 0 1.32 0 2 0 C0.40109514 5.19644079 -1.74138003 10.06612142 -4 15 C-4.33 15 -4.66 15 -5 15 C-5.20086443 11.28400809 -5.1519437 10.22791555 -3 7 C-2.61500109 5.34450469 -2.27206865 3.6777567 -2 2 C-1.34 2 -0.68 2 0 2 C0 1.34 0 0.68 0 0 Z " fill="#A6BB21" transform="translate(381,363)"/>
<path d="M0 0 C0.33 1.32 0.66 2.64 1 4 C0.34 4 -0.32 4 -1 4 C-1.66 7.3 -2.32 10.6 -3 14 C-3.99 14.33 -4.98 14.66 -6 15 C-3.10933941 4.44191344 -3.10933941 4.44191344 0 0 Z " fill="#C1C01F" transform="translate(360,208)"/>
<path d="M0 0 C0.33 0 0.66 0 1 0 C1 2.64 1 5.28 1 8 C1.66 8 2.32 8 3 8 C4.125 10.3125 4.125 10.3125 5 13 C4.01 14.485 4.01 14.485 3 16 C0.1647887 10.4477112 -0.37952295 6.19887485 0 0 Z " fill="#E9D417" transform="translate(216,443)"/>
<path d="M0 0 C2.31 0.33 4.62 0.66 7 1 C7 1.99 7 2.98 7 4 C8.32 4.66 9.64 5.32 11 6 C7.61121488 6 6.60242783 5.35638802 3.8125 3.5625 C2.73935547 2.88380859 2.73935547 2.88380859 1.64453125 2.19140625 C1.10183594 1.79824219 0.55914062 1.40507812 0 1 C0 0.67 0 0.34 0 0 Z " fill="#9FC51F" transform="translate(317,396)"/>
<path d="M0 0 C1.53166168 4.08443115 0.63081652 7.79455657 0 12 C-0.66 12 -1.32 12 -2 12 C-2.33 12.66 -2.66 13.32 -3 14 C-2.40380045 9.13103697 -1.43023178 4.67209049 0 0 Z " fill="#B5C12A" transform="translate(197,321)"/>
<path d="M0 0 C0.99 0.33 1.98 0.66 3 1 C3 1.66 3 2.32 3 3 C3.99 3.33 4.98 3.66 6 4 C7.39712274 5.95597184 8.73779907 7.95436401 10 10 C9.01 10.495 9.01 10.495 8 11 C6.99406757 9.8803014 5.9954151 8.7540588 5 7.625 C4.443125 6.99851563 3.88625 6.37203125 3.3125 5.7265625 C2 4 2 4 2 2 C1.34 2 0.68 2 0 2 C0 1.34 0 0.68 0 0 Z " fill="#A0C724" transform="translate(272,243)"/>
<path d="M0 0 C3.29078593 2.79716804 5.06305458 6.19528578 7 10 C6.67 10.66 6.34 11.32 6 12 C2.67829507 9.31100077 1.49641669 5.91918656 0 2 C0 1.34 0 0.68 0 0 Z " fill="#A8C229" transform="translate(372,205)"/>
<path d="M0 0 C1.18851563 0.00902344 2.37703125 0.01804687 3.6015625 0.02734375 C4.51679688 0.03894531 5.43203125 0.05054688 6.375 0.0625 C6.375 0.3925 6.375 0.7225 6.375 1.0625 C5.71113281 1.11148437 5.04726562 1.16046875 4.36328125 1.2109375 C-2.3362236 1.77375812 -2.3362236 1.77375812 -8.625 4.0625 C-8.625 3.0725 -8.625 2.0825 -8.625 1.0625 C-5.74084117 -0.37957941 -3.20778472 -0.03144887 0 0 Z " fill="#9BCA28" transform="translate(242.625,263.9375)"/>
<path d="M0 0 C0.33 0 0.66 0 1 0 C1.33 2.64 1.66 5.28 2 8 C0.02 8.99 0.02 8.99 -2 10 C-2.17942163 6.05272412 -2.09350689 3.4019487 0 0 Z " fill="#C8C91D" transform="translate(349,355)"/>
<path d="M0 0 C1.98 0 3.96 0 6 0 C6 0.99 6 1.98 6 3 C7.32 3.66 8.64 4.32 10 5 C5.75354935 5 3.61475228 3.18249194 0 1 C0 0.67 0 0.34 0 0 Z " fill="#ABC622" transform="translate(249,265)"/>
<path d="M0 0 C3.02419525 0.58803797 6.01758453 1.22678118 9 2 C9.33 3.32 9.66 4.64 10 6 C6.66666667 4.33333333 3.33333333 2.66666667 0 1 C0 0.67 0 0.34 0 0 Z " fill="#AAC322" transform="translate(349,375)"/>
<path d="M0 0 C2.02045442 0.60183749 4.02111039 1.27306096 6 2 C6.33 2.66 6.66 3.32 7 4 C4.03 4 1.06 4 -2 4 C-1.34 2.68 -0.68 1.36 0 0 Z " fill="#A1BA28" transform="translate(356,342)"/>
<path d="M0 0 C0.99 0.99 1.98 1.98 3 3 C2.67 3.99 2.34 4.98 2 6 C1.01 6 0.02 6 -1 6 C-1.33 6.66 -1.66 7.32 -2 8 C-2.33 7.01 -2.66 6.02 -3 5 C-2.34 4.67 -1.68 4.34 -1 4 C-0.34786708 1.97536745 -0.34786708 1.97536745 0 0 Z " fill="#BBC91B" transform="translate(382,357)"/>
<path d="M0 0 C2.12508244 3.18762365 2.5020163 5.26512223 3 9 C2.34 8.67 1.68 8.34 1 8 C1 7.34 1 6.68 1 6 C0.34 6 -0.32 6 -1 6 C-0.67 4.02 -0.34 2.04 0 0 Z " fill="#A2C425" transform="translate(353,224)"/>
<path d="M0 0 C0 0.99 0 1.98 0 3 C-2.3125 5.25 -2.3125 5.25 -5 7 C-5.99 6.67 -6.98 6.34 -8 6 C-5.36 4.02 -2.72 2.04 0 0 Z " fill="#049136" transform="translate(265,34)"/>
<path d="M0 0 C2.475 0.99 2.475 0.99 5 2 C5 2.99 5 3.98 5 5 C5.66 5 6.32 5 7 5 C6.67 5.99 6.34 6.98 6 8 C6 7.34 6 6.68 6 6 C5.34 6 4.68 6 4 6 C4 5.34 4 4.68 4 4 C3.01 3.67 2.02 3.34 1 3 C0.67 2.01 0.34 1.02 0 0 Z " fill="#BCCC1B" transform="translate(338,371)"/>
<path d="M0 0 C2.32472205 2.85306797 3.7508258 5.54074837 5 9 C1.125 7.125 1.125 7.125 0 6 C-0.04080783 4.00041636 -0.04254356 1.99954746 0 0 Z " fill="#AEBC1B" transform="translate(297,275)"/>
<path d="M0 0 C1.70884005 1.62339805 3.37446717 3.29319053 5 5 C5 5.66 5 6.32 5 7 C4.01 7 3.02 7 2 7 C0 4 0 4 0 0 Z " fill="#9BC11E" transform="translate(282,253)"/>
</svg>
